<svg xmlns="http://www.w3.org/2000/svg" width="960" height="540" viewBox="0 0 960 540" role="img" aria-labelledby="t">
  <title id="t">QR Generator URL and export diagram</title>
  <rect width="960" height="540" fill="#F6FAFC"/>
  <rect x="32" y="28" width="896" height="484" rx="28" fill="#fff" stroke="#e2e8f0"/>
  <text x="64" y="76" font-family="system-ui,sans-serif" font-size="22" font-weight="700" fill="#0A2540">QR Generator</text>
  <rect x="64" y="120" width="420" height="48" rx="12" fill="#F4F8FA" stroke="#00A3AD"/>
  <text x="84" y="150" font-family="ui-monospace,monospace" font-size="14" fill="#0A2540">https://www.filetoolskit.com</text>
  <g fill="#0A2540">
    <rect x="560" y="120" width="300" height="300" rx="16" fill="#fff" stroke="#0A2540"/>
    <rect x="590" y="150" width="70" height="70"/>
    <rect x="760" y="150" width="70" height="70"/>
    <rect x="590" y="320" width="70" height="70"/>
    <rect x="680" y="210" width="18" height="18"/>
    <rect x="710" y="210" width="18" height="18"/>
    <rect x="680" y="240" width="18" height="18"/>
    <rect x="740" y="270" width="18" height="18"/>
    <rect x="710" y="300" width="18" height="18"/>
  </g>
  <rect x="64" y="200" width="140" height="40" rx="20" fill="#00A3AD"/>
  <text x="134" y="225" text-anchor="middle" font-family="system-ui,sans-serif" font-size="13" fill="#fff">URL</text>
  <rect x="216" y="200" width="140" height="40" rx="20" fill="#F4F8FA" stroke="#e2e8f0"/>
  <text x="286" y="225" text-anchor="middle" font-family="system-ui,sans-serif" font-size="13" fill="#0A2540">Wi-Fi</text>
  <rect x="368" y="200" width="140" height="40" rx="20" fill="#F4F8FA" stroke="#e2e8f0"/>
  <text x="438" y="225" text-anchor="middle" font-family="system-ui,sans-serif" font-size="13" fill="#0A2540">vCard</text>
  <rect x="64" y="280" width="200" height="44" rx="22" fill="#0A2540"/>
  <text x="164" y="307" text-anchor="middle" font-family="system-ui,sans-serif" font-size="13" fill="#fff">Export PNG</text>
  <rect x="280" y="280" width="200" height="44" rx="22" fill="#F4F8FA" stroke="#e2e8f0"/>
  <text x="380" y="307" text-anchor="middle" font-family="system-ui,sans-serif" font-size="13" fill="#0A2540">Export SVG</text>
</svg>
